#N canvas 347 250 567 646 10;
#X obj 178 360 mtof;
#X obj 214 459 dac~;
#X obj 214 429 freeverb~;
#X obj 214 405 *~;
#X obj 241 381 loadbang;
#X msg 241 405 dry 1;
#X obj 178 244 mavg 6;
#X obj 229 244 mavg 6;
#X obj 178 381 cycle~;
#X obj 178 316 int;
#X obj 178 339 change;
#X obj 178 268 sqrt;
#X obj 178 292 maxlib/scale 0 1 24 127;
#X floatatom 328 143 5 0 0 0 - - -;
#X floatatom 146 216 5 0 0 0 - - -;
#X obj 229 333 *~ 0.3;
#X obj 182 85 unpackOSC;
#X obj 82 113 print udpmsg;
#X obj 181 117 routeOSC /note;
#X obj 173 146 unpack f f;
#X obj 182 47 udpreceive 8000;
#X obj 187 188 ftom;
#X obj 225 189 ftom;
#X connect 0 0 8 0;
#X connect 2 0 1 0;
#X connect 2 1 1 1;
#X connect 3 0 2 0;
#X connect 3 0 2 1;
#X connect 4 0 5 0;
#X connect 5 0 2 0;
#X connect 6 0 11 0;
#X connect 7 0 15 0;
#X connect 8 0 3 0;
#X connect 9 0 10 0;
#X connect 10 0 0 0;
#X connect 11 0 12 0;
#X connect 12 0 9 0;
#X connect 15 0 3 1;
#X connect 16 0 17 0;
#X connect 16 0 18 0;
#X connect 18 0 19 0;
#X connect 19 0 14 0;
#X connect 19 0 21 0;
#X connect 19 1 13 0;
#X connect 19 1 22 0;
#X connect 20 0 16 0;
#X connect 21 0 6 0;
#X connect 22 0 7 0;
