#N canvas 106 173 773 586 10;
#X declare -lib osc -lib mrpeach;
#X obj 452 92 unpackOSC;
#X obj 417 211 dbtorms;
#X obj 363 265 *~ 0.5;
#X obj 352 120 print udpmsg;
#X obj 361 162 unpack f f;
#X obj 452 54 udpreceive 8000;
#X obj 11 -30 hsl 500 15 20 2000 0 0 empty empty empty -2 -8 0 10 -262144
-1 -1 0 1;
#X obj 11 -82 hsl 128 15 0 120 0 0 empty empty empty -2 -8 0 10 -262144
-1 -1 0 1;
#X text 523 -33 pitch;
#X text 149 -84 volume;
#X msg 120 224 connect localhost 8000;
#X msg 139 258 disconnect;
#X obj 15 275 udpsend;
#X obj 15 240 packOSC;
#X msg 15 178 send /note \$1 \$2;
#X obj 15 144 list;
#X msg 9 -52 bang;
#N canvas 623 272 566 420 vibrato 0;
#X obj 68 184 vd~ vibrato;
#X obj 67 138 *~ 1;
#X obj 179 7 vsl 15 128 0.1 3 0 0 empty empty empty 0 -9 0 10 -262144
-1 -1 0 1;
#X obj 68 160 +~ 2;
#X obj 104 -58 delwrite~ vibrato 50;
#X obj 68 97 osc~ 2;
#X obj 68 -48 vsl 15 128 1 5 0 0 empty empty empty 0 -9 0 10 -262144
-1 -1 0 1;
#X floatatom 222 191 5 0 0 0 - - -;
#X obj 222 169 +;
#X obj 179 143 * 2;
#X floatatom 110 75 5 0 0 0 - - -;
#X text 259 192 <-- Maximum length of the delay line (= added latency!)
;
#X text 207 76 <-- Depth (change the length of the delay line);
#X text 94 -22 <-- Speed (frequency of the LFO);
#X text 188 258 Pierre Massat \, GuitarExtended \, 2012;
#X obj 104 -90 inlet~;
#X obj 68 220 outlet~;
#X connect 0 0 16 0;
#X connect 1 0 3 0;
#X connect 2 0 1 1;
#X connect 2 0 8 1;
#X connect 2 0 9 0;
#X connect 3 0 0 0;
#X connect 5 0 1 0;
#X connect 6 0 5 0;
#X connect 6 0 10 0;
#X connect 8 0 7 0;
#X connect 9 0 3 1;
#X connect 9 0 8 0;
#X connect 15 0 4 0;
#X restore 363 341 pd vibrato;
#X floatatom 66 -51 5 0 0 0 - - -;
#X floatatom 41 1 5 0 0 0 - - -;
#X obj 239 43 import osc mrpeach;
#X msg 535 216 stop;
#X msg 151 130 send /recon;
#X msg 247 126 send /recoff;
#X msg 153 80 whatever.wav;
#X obj 472 357 writesf~ 2;
#X obj 451 124 routeOSC /note /recon /recoff /playon /playoff;
#X msg 682 272 stop;
#X obj 485 406 +~;
#X obj 472 447 dac~;
#X msg 46 35 whatever.wav;
#X msg 47 69 send /playon;
#X msg 249 76 whatever.wav;
#X msg 142 11 whatever.wav;
#X msg 141 40 send /playoff;
#X obj 671 350 print;
#X obj 587 357 readsf~ 2;
#X msg 478 166 open recording.wav \, start;
#X msg 610 212 open playback.wav \, start;
#X obj 284 209 print vol;
#X obj 269 265 print pitch;
#X obj 361 212 phasor~;
#X connect 0 0 3 0;
#X connect 0 0 26 0;
#X connect 1 0 2 1;
#X connect 2 0 17 0;
#X connect 4 0 40 0;
#X connect 4 0 41 0;
#X connect 4 1 1 0;
#X connect 4 1 39 0;
#X connect 5 0 0 0;
#X connect 6 0 15 0;
#X connect 6 0 19 0;
#X connect 7 0 16 0;
#X connect 7 0 15 1;
#X connect 7 0 18 0;
#X connect 10 0 12 0;
#X connect 11 0 12 0;
#X connect 13 0 12 0;
#X connect 14 0 13 0;
#X connect 15 0 14 0;
#X connect 16 0 6 0;
#X connect 17 0 28 0;
#X connect 21 0 25 0;
#X connect 22 0 13 0;
#X connect 23 0 13 0;
#X connect 24 0 22 0;
#X connect 26 0 4 0;
#X connect 26 1 37 0;
#X connect 26 2 21 0;
#X connect 26 3 38 0;
#X connect 26 4 27 0;
#X connect 27 0 36 0;
#X connect 28 0 29 0;
#X connect 28 0 29 1;
#X connect 28 0 25 0;
#X connect 28 0 25 1;
#X connect 30 0 31 0;
#X connect 31 0 13 0;
#X connect 32 0 23 0;
#X connect 33 0 34 0;
#X connect 34 0 13 0;
#X connect 36 0 28 1;
#X connect 36 1 28 1;
#X connect 36 2 38 0;
#X connect 37 0 25 0;
#X connect 38 0 36 0;
#X connect 41 0 2 0;
