#N canvas 320 76 696 481 10;
#X declare -lib oscx -lib osc -lib mrpeach;
#X msg 131 153 connect localhost 30200;
#X msg 130 183 disconnect;
#X obj 438 311 osc~;
#X obj 440 409 dac~;
#X symbolatom 523 68 10 0 0 0 - - -;
#X obj 442 67 print loaded;
#X msg 475 -3 bang;
#X obj 438 201 unpackOSC;
#X obj 493 311 dbtorms;
#X obj 442 358 *~ 0.5;
#X obj 475 30 import oscx osc mrpeach;
#X obj 438 163 udpreceive 30200;
#X text 552 310 set volume;
#X text 363 311 set volume;
#X obj 8 166 packOSC;
#X obj 8 208 udpsend;
#X obj 8 245 tgl 15 0 empty empty empty 17 7 0 10 -262144 -1 -1 1 1
;
#X text 29 243 1=connected;
#X obj 338 229 print udpmsg;
#X obj 335 287 print freq;
#X obj 437 233 routeOSC /note;
#X obj 437 262 unpack f f;
#X obj 525 341 print rms;
#X obj 557 288 print db;
#X obj 5 -10 hsl 128 15 100 1000 0 0 empty empty empty -2 -8 0 10 -262144
-1 -1 2300 1;
#X obj 170 -10 hsl 128 15 0 100 0 0 empty empty empty -2 -8 0 10 -262144
-1 -1 1700 1;
#X floatatom 2 54 5 0 0 0 - - -;
#X floatatom 167 20 5 0 0 0 - - -;
#X text 35 -29 frequency;
#X text 211 -28 volume;
#X text 39 53 Hz;
#X text 209 15 dB;
#X obj 7 93 list append 1 2;
#X msg 90 40 bang;
#X msg 7 130 send /note \$1 \$2;
#X connect 0 0 15 0;
#X connect 1 0 15 0;
#X connect 2 0 9 0;
#X connect 6 0 10 0;
#X connect 7 0 18 0;
#X connect 7 0 20 0;
#X connect 8 0 9 1;
#X connect 8 0 22 0;
#X connect 9 0 3 0;
#X connect 9 0 3 1;
#X connect 10 0 4 0;
#X connect 10 0 5 0;
#X connect 11 0 7 0;
#X connect 14 0 15 0;
#X connect 15 0 16 0;
#X connect 20 0 21 0;
#X connect 21 0 19 0;
#X connect 21 0 2 0;
#X connect 21 1 8 0;
#X connect 21 1 23 0;
#X connect 24 0 26 0;
#X connect 25 0 27 0;
#X connect 26 0 32 0;
#X connect 27 0 32 1;
#X connect 27 0 33 0;
#X connect 32 0 34 0;
#X connect 33 0 26 0;
#X connect 34 0 14 0;
