#N canvas 1754 113 928 475 10;
#X obj 438 311 osc~;
#X obj 440 409 dac~;
#X obj 438 201 unpackOSC;
#X obj 493 311 dbtorms;
#X obj 442 358 *~ 0.5;
#X text 552 310 set volume;
#X text 363 311 set volume;
#X obj 338 229 print udpmsg;
#X obj 335 287 print freq;
#X obj 437 233 routeOSC /note;
#X obj 437 262 unpack f f;
#X obj 525 341 print rms;
#X obj 557 288 print db;
#X obj 438 163 udpreceive 8000;
#X connect 0 0 4 0;
#X connect 2 0 7 0;
#X connect 2 0 9 0;
#X connect 3 0 4 1;
#X connect 3 0 11 0;
#X connect 4 0 1 0;
#X connect 4 0 1 1;
#X connect 9 0 10 0;
#X connect 10 0 8 0;
#X connect 10 0 0 0;
#X connect 10 1 3 0;
#X connect 10 1 12 0;
#X connect 13 0 2 0;
