#N canvas 1683 170 822 579 10;
#X declare -lib osc -lib mrpeach;
#X obj 462 102 unpackOSC;
#X obj 427 221 dbtorms;
#X obj 378 307 *~ 0.5;
#X obj 362 130 print udpmsg;
#X obj 371 172 unpack f f;
#X obj 21 -20 hsl 500 15 20 2000 0 0 empty empty empty -2 -8 0 10 -262144
-1 -1 0 1;
#X obj 21 -72 hsl 128 15 0 120 0 0 empty empty empty -2 -8 0 10 -262144
-1 -1 0 1;
#X text 533 -23 pitch;
#X text 159 -74 volume;
#X msg 149 268 disconnect;
#X obj 25 285 udpsend;
#X obj 25 250 packOSC;
#X msg 25 188 send /note \$1 \$2;
#X obj 25 154 list;
#X msg 19 -42 bang;
#N canvas 2132 534 566 420 vibrato 0;
#X obj 68 184 vd~ vibrato;
#X obj 67 138 *~ 1;
#X obj 179 7 vsl 15 128 0.1 3 0 0 empty empty empty 0 -9 0 10 -262144
-1 -1 0 1;
#X obj 68 160 +~ 2;
#X obj 68 -48 vsl 15 128 1 5 0 0 empty empty empty 0 -9 0 10 -262144
-1 -1 0 1;
#X floatatom 222 191 5 0 0 0 - - -;
#X obj 222 169 +;
#X obj 179 143 * 2;
#X floatatom 110 75 5 0 0 0 - - -;
#X text 259 192 <-- Maximum length of the delay line (= added latency!)
;
#X text 207 76 <-- Depth (change the length of the delay line);
#X text 94 -22 <-- Speed (frequency of the LFO);
#X text 188 258 Pierre Massat \, GuitarExtended \, 2012;
#X obj 104 -90 inlet~;
#X obj 68 220 outlet~;
#X obj 68 98 osc~ 2;
#X obj 104 -58 delwrite~ vibrato 50;
#X connect 0 0 14 0;
#X connect 1 0 3 0;
#X connect 2 0 1 1;
#X connect 2 0 6 1;
#X connect 2 0 7 0;
#X connect 3 0 0 0;
#X connect 4 0 8 0;
#X connect 4 0 15 0;
#X connect 6 0 5 0;
#X connect 7 0 3 1;
#X connect 7 0 6 0;
#X connect 13 0 16 0;
#X connect 15 0 1 0;
#X restore 373 351 pd vibrato;
#X floatatom 76 -41 5 0 0 0 - - -;
#X floatatom 51 11 5 0 0 0 - - -;
#X msg 545 226 stop;
#X msg 161 140 send /recon;
#X msg 257 136 send /recoff;
#X msg 163 90 whatever.wav;
#X obj 482 367 writesf~ 2;
#X obj 461 134 routeOSC /note /recon /recoff /playon /playoff;
#X msg 692 282 stop;
#X obj 495 416 +~;
#X obj 482 457 dac~;
#X msg 56 45 whatever.wav;
#X msg 57 79 send /playon;
#X msg 259 86 whatever.wav;
#X msg 152 21 whatever.wav;
#X msg 151 50 send /playoff;
#X obj 681 360 print;
#X obj 597 367 readsf~ 2;
#X msg 488 176 open recording.wav \, start;
#X msg 620 222 open playback.wav \, start;
#X obj 272 202 print vol;
#X obj 279 275 print pitch;
#N canvas 1562 199 910 576 harmonicTable 0;
#X obj 27 190 r \$0-1;
#X obj 76 189 r \$0-2;
#X obj 125 188 r \$0-3;
#X obj 173 188 r \$0-4;
#X obj 220 188 r \$0-5;
#X obj 268 188 r \$0-6;
#X obj 317 188 r \$0-7;
#X obj 365 188 r \$0-8;
#X obj 414 188 r \$0-9;
#X obj 461 188 r \$0-10;
#X obj 516 188 r \$0-11;
#X obj 571 188 r \$0-12;
#X obj 625 188 r \$0-13;
#X obj 678 188 r \$0-14;
#X obj 731 188 r \$0-15;
#X obj 784 188 r \$0-16;
#X msg 241 423 \; \$1 sinesum 4096 \$2 \$3 \$4 \$5 \$6 \$7 \$8 \$9
\$10 \$11 \$12 \$13 \$14 \$15 \$16 \$17 \; \$1 normalize;
#X obj 33 332 symbol \$1;
#X obj 241 400 pack s f f f f f f f f f f f f f f f f;
#X obj 27 211 t b f;
#X obj 221 208 t b f;
#X obj 414 208 t b f;
#X obj 625 209 t b f;
#X obj 76 210 t b f;
#X obj 268 209 t b f;
#X obj 461 208 t b f;
#X obj 678 209 t b f;
#X obj 125 209 t b f;
#X obj 317 209 t b f;
#X obj 516 208 t b f;
#X obj 731 209 t b f;
#X obj 173 208 t b f;
#X obj 365 208 t b f;
#X obj 571 207 t b f;
#X obj 784 208 t b f;
#X obj 24 30 vsl 12 96 0 1 0 1 \$0-1 \$0-1 1 4 104 2 10 -262131 -123526
-1 9500 0;
#X obj 36 30 vsl 12 96 0 1 0 1 \$0-2 \$0-2 2 4 104 2 10 -225271 -42246
-1 4800 0;
#X obj 48 30 vsl 12 96 0 1 0 1 \$0-3 \$0-3 3 4 104 2 10 -225271 -42246
-1 3300 0;
#X obj 60 30 vsl 12 96 0 1 0 1 \$0-4 \$0-4 4 4 104 2 10 -225271 -42246
-1 2000 0;
#X obj 72 30 vsl 12 96 0 1 0 1 \$0-5 \$0-5 5 4 104 2 10 -225271 -42246
-1 1300 0;
#X obj 84 30 vsl 12 96 0 1 0 1 \$0-6 \$0-6 6 4 104 2 10 -225271 -42246
-1 800 0;
#X obj 96 30 vsl 12 96 0 1 0 1 \$0-7 \$0-7 7 4 104 2 10 -225271 -42246
-1 600 0;
#X obj 108 30 vsl 12 96 0 1 0 1 \$0-8 \$0-8 8 4 104 2 10 -225271 -42246
-1 500 0;
#X obj 120 30 vsl 12 96 0 1 0 1 \$0-9 \$0-9 9 4 104 2 10 -262131 -123526
-1 400 0;
#X obj 132 30 vsl 12 96 0 1 0 1 \$0-10 \$0-10 10 1 104 2 10 -225271
-42246 -1 300 0;
#X obj 144 30 vsl 12 96 0 1 0 1 \$0-11 \$0-11 11 1 104 2 10 -225271
-42246 -1 200 0;
#X obj 156 30 vsl 12 96 0 1 0 1 \$0-12 \$0-12 12 1 104 2 10 -225271
-42246 -1 200 0;
#X obj 168 30 vsl 12 96 0 1 0 1 \$0-13 \$0-13 13 1 104 2 10 -225271
-42246 -1 100 0;
#X obj 180 30 vsl 12 96 0 1 0 1 \$0-14 \$0-14 14 1 104 2 10 -225271
-42246 -1 100 0;
#X obj 192 30 vsl 12 96 0 1 0 1 \$0-15 \$0-15 15 1 104 2 10 -225271
-42246 -1 100 0;
#X obj 204 30 vsl 12 96 0 1 0 1 \$0-16 \$0-16 16 1 104 2 10 -225271
-42246 -1 100 0;
#N canvas 0 22 450 300 (subpatch) 0;
#X array \$1 4099 float 0;
#X coords 0 1 4098 -1 140 96 1;
#X restore 229 33 graph;
#X connect 0 0 19 0;
#X connect 1 0 23 0;
#X connect 2 0 27 0;
#X connect 3 0 31 0;
#X connect 4 0 20 0;
#X connect 5 0 24 0;
#X connect 6 0 28 0;
#X connect 7 0 32 0;
#X connect 8 0 21 0;
#X connect 9 0 25 0;
#X connect 10 0 29 0;
#X connect 11 0 33 0;
#X connect 12 0 22 0;
#X connect 13 0 26 0;
#X connect 14 0 30 0;
#X connect 15 0 34 0;
#X connect 17 0 18 0;
#X connect 18 0 16 0;
#X connect 19 0 17 0;
#X connect 19 1 18 1;
#X connect 20 0 17 0;
#X connect 20 1 18 5;
#X connect 21 0 17 0;
#X connect 21 1 18 9;
#X connect 22 0 17 0;
#X connect 22 1 18 13;
#X connect 23 0 17 0;
#X connect 23 1 18 2;
#X connect 24 0 17 0;
#X connect 24 1 18 6;
#X connect 25 0 17 0;
#X connect 25 1 18 10;
#X connect 26 0 17 0;
#X connect 26 1 18 14;
#X connect 27 0 17 0;
#X connect 27 1 18 3;
#X connect 28 0 17 0;
#X connect 28 1 18 7;
#X connect 29 0 17 0;
#X connect 29 1 18 11;
#X connect 30 0 17 0;
#X connect 30 1 18 15;
#X connect 31 0 17 0;
#X connect 31 1 18 4;
#X connect 32 0 17 0;
#X connect 32 1 18 8;
#X connect 33 0 17 0;
#X connect 33 1 18 12;
#X connect 34 0 17 0;
#X connect 34 1 18 16;
#X restore 15 319 pd harmonicTable;
#N canvas 2167 209 565 628 triangle~ 0;
#X obj 126 126 * -1;
#X msg 200 125 0;
#X obj 68 169 phasor~;
#X obj 169 167 phasor~;
#X obj 69 209 *~ 2;
#X obj 68 236 -~ 1;
#X obj 67 264 clip~ 0 1;
#X obj 169 212 *~ 2;
#X obj 168 239 -~ 1;
#X obj 167 267 clip~ 0 1;
#X obj 115 318 +~;
#X obj 115 355 *~ 0.7;
#X text 201 108 phase synchronization;
#X obj 111 433 outlet~;
#X obj 81 87 inlet;
#X connect 0 0 3 0;
#X connect 1 0 3 1;
#X connect 1 0 2 1;
#X connect 2 0 4 0;
#X connect 3 0 7 0;
#X connect 4 0 5 0;
#X connect 5 0 6 0;
#X connect 6 0 10 0;
#X connect 7 0 8 0;
#X connect 8 0 9 0;
#X connect 9 0 10 1;
#X connect 10 0 11 0;
#X connect 11 0 13 0;
#X connect 14 0 0 0;
#X connect 14 0 2 0;
#X restore 340 241 pd triangle~;
#X obj 322 18 import osc mrpeach;
#X obj 375 213 phasor~;
#X obj 379 275 +~;
#X obj 435 255 *~ 0.85;
#X obj 398 398 rpole~ 0.5 0.9;
#X obj 462 64 udpreceive 8000;
#X msg 130 234 connect localhost 8000;
#X connect 0 0 3 0;
#X connect 0 0 23 0;
#X connect 1 0 2 1;
#X connect 2 0 15 0;
#X connect 4 0 37 0;
#X connect 4 0 39 0;
#X connect 4 0 41 0;
#X connect 4 1 1 0;
#X connect 4 1 36 0;
#X connect 5 0 13 0;
#X connect 5 0 17 0;
#X connect 6 0 14 0;
#X connect 6 0 13 1;
#X connect 6 0 16 0;
#X connect 9 0 10 0;
#X connect 11 0 10 0;
#X connect 12 0 11 0;
#X connect 13 0 12 0;
#X connect 14 0 5 0;
#X connect 15 0 44 0;
#X connect 18 0 22 0;
#X connect 19 0 11 0;
#X connect 20 0 11 0;
#X connect 21 0 19 0;
#X connect 23 0 4 0;
#X connect 23 1 34 0;
#X connect 23 2 18 0;
#X connect 23 3 35 0;
#X connect 23 4 24 0;
#X connect 24 0 33 0;
#X connect 25 0 26 0;
#X connect 25 0 26 1;
#X connect 25 0 22 0;
#X connect 25 0 22 1;
#X connect 27 0 28 0;
#X connect 28 0 11 0;
#X connect 29 0 20 0;
#X connect 30 0 31 0;
#X connect 31 0 11 0;
#X connect 33 0 25 1;
#X connect 33 1 25 1;
#X connect 33 2 35 0;
#X connect 34 0 22 0;
#X connect 35 0 33 0;
#X connect 39 0 42 0;
#X connect 41 0 43 0;
#X connect 42 0 2 0;
#X connect 43 0 42 1;
#X connect 44 0 25 0;
#X connect 45 0 0 0;
#X connect 46 0 10 0;
